<svg xmlns="http://www.w3.org/2000/svg" viewBox="0 0 800 500" font-family="'IBM Plex Mono', Consolas, monospace">
  <rect width="800" height="500" fill="#0d1225"/>

  <!-- faint grid -->
  <g stroke="#1a2342" stroke-width="1">
    <line x1="60" y1="140" x2="500" y2="140"/>
    <line x1="60" y1="210" x2="500" y2="210"/>
    <line x1="60" y1="280" x2="500" y2="280"/>
    <line x1="60" y1="350" x2="500" y2="350"/>
    <line x1="60" y1="420" x2="500" y2="420"/>
  </g>

  <!-- header -->
  <text x="60" y="58" fill="#6ee7ff" font-size="17" font-weight="600">FINSIGHT&#160;AI</text>
  <text x="60" y="82" fill="#6a7694" font-size="12">// multi-agent market intelligence</text>

  <!-- candlesticks -->
  <g stroke-width="2">
    <line x1="80"  y1="330" x2="80"  y2="392" stroke="#7af0b0"/><rect x="72"  y="344" width="16" height="34" fill="#7af0b0"/>
    <line x1="115" y1="308" x2="115" y2="370" stroke="#7af0b0"/><rect x="107" y="320" width="16" height="36" fill="#7af0b0"/>
    <line x1="150" y1="300" x2="150" y2="368" stroke="#ffb454"/><rect x="142" y="316" width="16" height="38" fill="#ffb454"/>
    <line x1="185" y1="290" x2="185" y2="352" stroke="#7af0b0"/><rect x="177" y="300" width="16" height="38" fill="#7af0b0"/>
    <line x1="220" y1="248" x2="220" y2="316" stroke="#7af0b0"/><rect x="212" y="260" width="16" height="42" fill="#7af0b0"/>
    <line x1="255" y1="242" x2="255" y2="308" stroke="#ffb454"/><rect x="247" y="256" width="16" height="38" fill="#ffb454"/>
    <line x1="290" y1="230" x2="290" y2="296" stroke="#7af0b0"/><rect x="282" y="240" width="16" height="42" fill="#7af0b0"/>
    <line x1="325" y1="196" x2="325" y2="262" stroke="#7af0b0"/><rect x="317" y="206" width="16" height="42" fill="#7af0b0"/>
    <line x1="360" y1="188" x2="360" y2="252" stroke="#ffb454"/><rect x="352" y="200" width="16" height="36" fill="#ffb454"/>
    <line x1="395" y1="168" x2="395" y2="234" stroke="#7af0b0"/><rect x="387" y="178" width="16" height="42" fill="#7af0b0"/>
    <line x1="430" y1="150" x2="430" y2="212" stroke="#7af0b0"/><rect x="422" y="160" width="16" height="40" fill="#7af0b0"/>
    <line x1="465" y1="128" x2="465" y2="192" stroke="#7af0b0"/><rect x="457" y="138" width="16" height="40" fill="#7af0b0"/>
  </g>

  <!-- trend line -->
  <path d="M72 372 C 160 350, 220 300, 300 262 S 430 170, 480 142" fill="none" stroke="#6ee7ff" stroke-width="2" opacity="0.75"/>

  <!-- agent graph -->
  <g stroke="#6ee7ff" stroke-width="1.4" opacity="0.5">
    <line x1="645" y1="255" x2="645" y2="150"/>
    <line x1="645" y1="255" x2="748" y2="212"/>
    <line x1="645" y1="255" x2="748" y2="318"/>
    <line x1="645" y1="255" x2="645" y2="382"/>
    <line x1="645" y1="255" x2="545" y2="255"/>
  </g>
  <circle cx="645" cy="255" r="26" fill="#131a30" stroke="#6ee7ff" stroke-width="2"/>
  <circle cx="645" cy="255" r="40" fill="none" stroke="#6ee7ff" stroke-width="1" opacity="0.25"/>
  <text x="645" y="260" fill="#6ee7ff" font-size="11" text-anchor="middle">LLM</text>

  <circle cx="645" cy="140" r="9" fill="#0d1225" stroke="#a99be8" stroke-width="2"/>
  <circle cx="756" cy="208" r="9" fill="#0d1225" stroke="#a99be8" stroke-width="2"/>
  <circle cx="756" cy="322" r="9" fill="#0d1225" stroke="#a99be8" stroke-width="2"/>
  <circle cx="645" cy="392" r="9" fill="#0d1225" stroke="#a99be8" stroke-width="2"/>
  <circle cx="535" cy="255" r="9" fill="#0d1225" stroke="#a99be8" stroke-width="2"/>

  <text x="645" y="120" fill="#93a0c0" font-size="11" text-anchor="middle">technical</text>
  <text x="726" y="188" fill="#93a0c0" font-size="11" text-anchor="middle">fundamental</text>
  <text x="732" y="352" fill="#93a0c0" font-size="11" text-anchor="middle">sentiment</text>
  <text x="645" y="422" fill="#93a0c0" font-size="11" text-anchor="middle">macro</text>
  <text x="535" y="288" fill="#93a0c0" font-size="11" text-anchor="middle">events</text>

  <!-- footer readout -->
  <text x="60" y="462" fill="#6a7694" font-size="11">coverage: US · CA · JP · EU&#160;&#160;·&#160;&#160;regime: risk-on</text>
  <circle cx="676" cy="458" r="4" fill="#7af0b0"/>
  <text x="688" y="462" fill="#7af0b0" font-size="11">live</text>
</svg>
