<svg xmlns="http://www.w3.org/2000/svg" viewBox="0 0 800 500" font-family="'IBM Plex Mono', Consolas, monospace">
  <rect width="800" height="500" fill="#0d1225"/>

  <!-- header -->
  <text x="60" y="58" fill="#6ee7ff" font-size="17" font-weight="600">WINE&#160;QUALITY&#160;PREDICTOR</text>
  <text x="60" y="82" fill="#6a7694" font-size="12">// multinomial logistic regression · ROC curves</text>

  <!-- plot frame -->
  <g stroke="#1a2342" stroke-width="1">
    <line x1="100" y1="120" x2="520" y2="120"/>
    <line x1="100" y1="190" x2="520" y2="190"/>
    <line x1="100" y1="260" x2="520" y2="260"/>
    <line x1="100" y1="330" x2="520" y2="330"/>
  </g>
  <g stroke="#35456e" stroke-width="1.5">
    <line x1="100" y1="110" x2="100" y2="400"/>
    <line x1="100" y1="400" x2="520" y2="400"/>
  </g>

  <!-- chance baseline -->
  <line x1="100" y1="400" x2="520" y2="110" stroke="#6a7694" stroke-width="1.2" stroke-dasharray="6 5" opacity="0.6"/>

  <!-- ROC curves: high / mid / low separability -->
  <path d="M100 400 C 108 300, 118 250, 160 210 S 280 130, 520 112" fill="none" stroke="#6ee7ff" stroke-width="2.6"/>
  <path d="M100 400 C 115 330, 135 285, 195 245 S 330 158, 520 122" fill="none" stroke="#a99be8" stroke-width="2.2"/>
  <path d="M100 400 C 125 355, 160 315, 240 275 S 390 190, 520 138" fill="none" stroke="#ffb454" stroke-width="2"/>

  <!-- axis labels -->
  <text x="310" y="432" fill="#93a0c0" font-size="12" text-anchor="middle">false positive rate</text>
  <text x="72" y="255" fill="#93a0c0" font-size="12" text-anchor="middle" transform="rotate(-90 72 255)">true positive rate</text>
  <text x="96" y="416" fill="#6a7694" font-size="10" text-anchor="middle">0</text>
  <text x="520" y="416" fill="#6a7694" font-size="10" text-anchor="middle">1</text>

  <!-- legend -->
  <g font-size="12">
    <line x1="580" y1="150" x2="614" y2="150" stroke="#6ee7ff" stroke-width="2.6"/>
    <text x="624" y="155" fill="#93a0c0">high quality</text>
    <line x1="580" y1="182" x2="614" y2="182" stroke="#a99be8" stroke-width="2.2"/>
    <text x="624" y="187" fill="#93a0c0">mid quality</text>
    <line x1="580" y1="214" x2="614" y2="214" stroke="#ffb454" stroke-width="2"/>
    <text x="624" y="219" fill="#93a0c0">low quality</text>
    <line x1="580" y1="246" x2="614" y2="246" stroke="#6a7694" stroke-width="1.2" stroke-dasharray="6 5"/>
    <text x="624" y="251" fill="#6a7694">chance</text>
  </g>

  <!-- feature importance mini-bars -->
  <text x="580" y="310" fill="#93a0c0" font-size="11">top features</text>
  <g font-size="10">
    <rect x="580" y="322" width="130" height="10" rx="2" fill="#6ee7ff" opacity="0.8"/>
    <text x="580" y="348" fill="#6a7694">alcohol</text>
    <rect x="580" y="356" width="96" height="10" rx="2" fill="#6ee7ff" opacity="0.55"/>
    <text x="580" y="382" fill="#6a7694">volatile acidity</text>
    <rect x="580" y="390" width="66" height="10" rx="2" fill="#6ee7ff" opacity="0.35"/>
    <text x="580" y="416" fill="#6a7694">sulphates</text>
  </g>

  <text x="60" y="462" fill="#6a7694" font-size="11">red + white datasets · scikit-learn · cross-validated</text>
</svg>
